<svg width="35" height="45" viewBox="0 0 35 45" fill="none" xmlns="http://www.w3.org/2000/svg">
<path d="M16.8792 0.425915C16.0858 0.591213 14.8956 1.21935 14.2344 1.81442C13.1104 2.77315 12.9782 3.07069 12.9782 4.45919C12.9782 6.47583 13.8377 7.2362 17.5073 8.42635C21.1108 9.6165 21.0981 10.0082 21.7593 11.0331C22.4205 12.0579 23.2593 13.5331 20.2593 14.0331C19.5651 14.0331 17.1809 14.6694 15.7593 15.0331C11.0649 16.2232 7.50002 18.6748 7.50002 20.3278C7.50002 20.8568 7.55791 21.1213 6.5 21.8486C4.41724 23.3032 4.0851 24.2619 4.64712 28.0638C5.63891 34.6427 8.11839 38.4776 12.1186 39.7008C12.7798 39.8991 14.4328 40.1306 15.8544 40.2297C19.3917 40.4942 22.3671 39.5685 24.6482 37.5188C26.5988 35.7667 27.3261 34.1137 27.5905 30.9069C27.7558 28.9564 27.999 29.2934 28.7593 28.5331C30.0156 27.2768 30.9369 26.7437 32.2593 28.0331C33.0858 28.8926 33.0633 30.1579 32.5599 30.8818C31.7593 32.0331 31.8648 31.3803 30.2593 31.5331C28.6063 31.5331 28.3179 32.5599 29.475 33.0888C31.3924 33.9815 34.1364 32.3285 34.5 30.0143C35.029 26.8406 31.3593 24.6586 28.417 26.4439C27.1277 27.2373 25.7139 27.8734 25.4164 30.8818C25.0197 34.6176 24.0653 36.0123 20.7593 37.5331C18.379 38.624 14.4989 38.6098 12.1186 37.5188C8.94488 36.0642 8.38335 35.43 7.25932 31.0331C6.22994 26.9486 5.25933 26.5331 6.75932 24.5331C7.16785 23.9884 8.10224 23.409 9.25932 24.5331C12.5322 27.7068 23.2597 27.9464 27.5905 25.5331C29.3097 24.5743 29.508 22.9065 28.1526 21.8486C25.4747 19.7327 16.1188 18.9393 10.7632 20.3278C9.80443 20.5923 8.97794 20.7245 8.91182 20.6584C8.81264 20.5923 9.46179 19.9959 9.75932 19.5331C11 18.5 11.7593 18.0331 15.7593 16.5331C18.2593 16.0331 24.7144 14.5754 24.7144 12.2943C24.7144 10.5752 23.2928 8.92647 20.086 7.90162C16.2841 6.67842 14.9948 5.91805 14.532 5.22379C14.0691 4.52954 14.7593 4.35955 14.7593 3.53306C15.3544 2.11149 17.0525 2.26038 20.2593 1.53306C22.1768 1.40082 22.7308 0.756508 22.7308 0.458973C22.7308 -0.103043 19.0611 -0.103039 16.8792 0.425915ZM25.045 21.6502C28.6815 22.7412 28.2047 23.5815 24.9648 24.7055C20.5679 26.2593 11.8381 25.1923 9.52397 22.6467C8.89584 21.9855 9.29946 22.1792 10.5557 21.8486C12.936 21.2535 13.3004 20.9008 18.2593 21.0331C21.6314 21.0992 23.7887 21.2866 25.045 21.6502Z" fill="#311B0B"/>
<path d="M2.37031 37.9197C-2.29111 40.3 0.122248 43.1432 7.85821 44.4656C11.4617 45.0937 20.5862 45.1929 24.4872 44.6309C31.7934 43.6391 35.1655 41.2257 32.6199 38.8454C31.8265 38.1181 29.2478 37.0271 28.2891 37.0271C27.2642 37.0271 27.3352 38.2947 28.8229 38.8237C30.8817 39.8531 31.9111 39.8531 31.9111 40.8824C31.7789 41.1469 30.7449 41.4821 29.8523 41.9118C24.4305 44.4574 9.97403 44.3913 3.85799 41.9118C0.684263 40.6556 1.02939 40.0616 3.85799 38.6572C4.7506 38.3266 5.47792 37.9197 5.64321 37.4239C5.87463 36.7296 4.28777 36.961 2.37031 37.9197Z" fill="#311B0B"/>
</svg>
